<svg preserveAspectRatio="none" width="100%" height="100%" overflow="visible" style="display: block;" viewBox="0 0 16 16" fill="none" xmlns="http://www.w3.org/2000/svg">
<g id="Social/Instagram">
<path id="Vector" d="M8.68345 1.33203C9.43371 1.33327 9.81391 1.33724 10.1424 1.34702L10.2718 1.35125C10.4213 1.35656 10.5688 1.36323 10.7466 1.37156C11.456 1.40434 11.9399 1.51656 12.3649 1.68156C12.8043 1.85101 13.1754 2.0799 13.546 2.45046C13.916 2.82101 14.1449 3.19323 14.3149 3.63156C14.4793 4.05601 14.5916 4.54046 14.6249 5.2499C14.6328 5.42768 14.6392 5.57514 14.6445 5.72464L14.6487 5.85403C14.6584 6.18252 14.6629 6.56278 14.6643 7.31308L14.6648 7.81015C14.6649 7.87088 14.6649 7.93354 14.6649 7.99821L14.6648 8.18628L14.6644 8.68341C14.6632 9.43368 14.6592 9.81395 14.6494 10.1424L14.6452 10.2718C14.6399 10.4213 14.6332 10.5688 14.6249 10.7465C14.5921 11.456 14.4793 11.9399 14.3149 12.3649C14.1454 12.8043 13.916 13.1755 13.546 13.546C13.1754 13.916 12.8026 14.1449 12.3649 14.3149C11.9399 14.4793 11.456 14.5915 10.7466 14.6249C10.5688 14.6328 10.4213 14.6393 10.2718 14.6445L10.1424 14.6487C9.81391 14.6585 9.43371 14.6629 8.68345 14.6643L8.18631 14.6649C8.12558 14.6649 8.06291 14.6649 7.99825 14.6649H7.81018L7.31304 14.6644C6.56278 14.6632 6.18253 14.6592 5.85403 14.6494L5.72464 14.6452C5.57514 14.6399 5.42767 14.6332 5.2499 14.6249C4.54045 14.5921 4.05712 14.4793 3.63157 14.3149C3.19267 14.1455 2.821 13.916 2.45045 13.546C2.0799 13.1755 1.85156 12.8027 1.68156 12.3649C1.51656 11.9399 1.4049 11.456 1.37156 10.7465C1.36364 10.5688 1.35718 10.4213 1.35195 10.2718L1.34776 10.1424C1.338 9.81395 1.33356 9.43368 1.33212 8.68341L1.33203 7.31308C1.33327 6.56278 1.33724 6.18252 1.34702 5.85403L1.35125 5.72464C1.35656 5.57514 1.36323 5.42768 1.37156 5.2499C1.40434 4.5399 1.51656 4.05656 1.68156 3.63156C1.851 3.19268 2.0799 2.82101 2.45045 2.45046C2.821 2.0799 3.19323 1.85156 3.63157 1.68156C4.05657 1.51656 4.5399 1.4049 5.2499 1.37156C5.42767 1.36365 5.57514 1.35719 5.72464 1.35196L5.85403 1.34776C6.18253 1.338 6.56278 1.33356 7.31304 1.33212L8.68345 1.33203ZM7.99825 4.6649C6.1563 4.6649 4.6649 6.15792 4.6649 7.99821C4.6649 9.84014 6.15792 11.3315 7.99825 11.3315C9.84018 11.3315 11.3316 9.83854 11.3316 7.99821C11.3316 6.1563 9.83851 4.6649 7.99825 4.6649ZM7.99825 5.99823C9.10285 5.99823 9.99825 6.89334 9.99825 7.99821C9.99825 9.10281 9.10311 9.99821 7.99825 9.99821C6.89365 9.99821 5.99823 9.10314 5.99823 7.99821C5.99823 6.89361 6.89331 5.99823 7.99825 5.99823ZM11.4982 3.6649C11.0387 3.6649 10.6649 4.03817 10.6649 4.49766C10.6649 4.95716 11.0382 5.33101 11.4982 5.33101C11.9577 5.33101 12.3316 4.95774 12.3316 4.49766C12.3316 4.03817 11.9571 3.66432 11.4982 3.6649Z" fill="var(--fill-0, #000200)"/>
</g>
</svg>
