<svg preserveAspectRatio="none" width="100%" height="100%" overflow="visible" style="display: block;" viewBox="0 0 59 58.6093" fill="none" xmlns="http://www.w3.org/2000/svg">
<g id="09.whatsapp">
<path id="background" d="M29.5 58.6093C45.7924 58.6093 59 45.4891 59 29.3046C59 13.1201 45.7924 0 29.5 0C13.2076 0 0 13.1201 0 29.3046C0 45.4891 13.2076 58.6093 29.5 58.6093Z" fill="var(--fill-0, #29A71A)"/>
<g id="icon">
<path id="Vector" d="M42.5068 16.384C39.4376 13.3046 35.3617 11.4162 31.0142 11.0592C26.6668 10.7023 22.3341 11.9004 18.7976 14.4373C15.2611 16.9743 12.7536 20.6832 11.7274 24.8949C10.7012 29.1067 11.224 33.5441 13.2012 37.4067L11.2603 46.7675C11.2401 46.8607 11.2396 46.957 11.2586 47.0504C11.2776 47.1438 11.3159 47.2323 11.3709 47.3103C11.4515 47.4288 11.5666 47.52 11.7008 47.5718C11.835 47.6235 11.9818 47.6334 12.1218 47.6001L21.3573 45.4255C25.2348 47.34 29.6702 47.8259 33.8744 46.7966C38.0787 45.7674 41.7789 43.2899 44.3169 39.8049C46.8548 36.3199 48.0658 32.0535 47.7344 27.7648C47.4029 23.4761 45.5505 19.4433 42.5068 16.384ZM39.6272 39.2149C37.5036 41.3185 34.7691 42.7071 31.8089 43.1851C28.8488 43.663 25.8123 43.2062 23.1273 41.879L21.8401 41.2463L16.1781 42.5783L16.1948 42.5084L17.3681 36.8473L16.7379 35.6118C15.366 32.9353 14.8821 29.8962 15.3554 26.9298C15.8287 23.9633 17.235 21.2218 19.3728 19.098C22.059 16.4304 25.7017 14.9318 29.5 14.9318C33.2983 14.9318 36.941 16.4304 39.6272 19.098C39.6501 19.124 39.6747 19.1485 39.701 19.1712C42.3539 21.8457 43.8348 25.4535 43.821 29.2082C43.8072 32.9628 42.2997 36.5598 39.6272 39.2149Z" fill="var(--fill-0, white)"/>
<path id="Vector_2" d="M39.1244 35.0623C38.4305 36.1479 37.3343 37.4766 35.9565 37.8063C33.5428 38.3857 29.8386 37.8263 25.2292 33.5571L25.1722 33.5072C21.1193 29.7742 20.0667 26.6672 20.3215 24.203C20.4623 22.8043 21.6356 21.5389 22.6245 20.713C22.7808 20.5805 22.9662 20.4861 23.1659 20.4375C23.3655 20.3888 23.5738 20.3873 23.7742 20.4329C23.9745 20.4785 24.1613 20.5701 24.3197 20.7003C24.478 20.8304 24.6035 20.9956 24.6861 21.1826L26.1779 24.5127C26.2748 24.7286 26.3108 24.9666 26.2818 25.2013C26.2529 25.436 26.1602 25.6584 26.0136 25.8447L25.2594 26.8171C25.0975 27.0178 24.9999 27.2621 24.979 27.5185C24.9581 27.7749 25.0149 28.0316 25.142 28.2557C25.5644 28.9916 26.5768 30.0739 27.6998 31.0762C28.9603 32.2085 30.3582 33.2441 31.2432 33.5971C31.48 33.6932 31.7403 33.7167 31.9907 33.6644C32.241 33.6122 32.4699 33.4867 32.6478 33.3041L33.5227 32.4282C33.6916 32.2629 33.9015 32.1449 34.1312 32.0864C34.3608 32.0279 34.602 32.031 34.8301 32.0952L38.3735 33.0943C38.5689 33.1538 38.7481 33.257 38.8972 33.3959C39.0464 33.5348 39.1616 33.7057 39.2341 33.8956C39.3065 34.0855 39.3343 34.2894 39.3153 34.4916C39.2963 34.6938 39.231 34.889 39.1244 35.0623Z" fill="var(--fill-0, white)"/>
</g>
</g>
</svg>
