<svg preserveAspectRatio="none" width="100%" height="100%" overflow="visible" style="display: block;" viewBox="0 0 31.5009 37.5011" fill="none" xmlns="http://www.w3.org/2000/svg">
<path id="Vector" d="M0.75 2.75056V34.7506C0.7499 35.1064 0.84475 35.4559 1.02476 35.7628C1.20478 36.0698 1.46343 36.3232 1.77405 36.4968C2.08466 36.6705 2.43599 36.7581 2.79177 36.7507C3.14755 36.7433 3.49491 36.641 3.798 36.4546L29.798 20.4546C30.0892 20.2756 30.3297 20.025 30.4965 19.7267C30.6633 19.4284 30.7509 19.0923 30.7509 18.7506C30.7509 18.4088 30.6633 18.0727 30.4965 17.7744C30.3297 17.4761 30.0892 17.2255 29.798 17.0466L3.798 1.04656C3.49491 0.860093 3.14755 0.757868 2.79177 0.750436C2.43599 0.743004 2.08466 0.830635 1.77405 1.00429C1.46343 1.17794 1.20478 1.43132 1.02476 1.73829C0.84475 2.04526 0.7499 2.3947 0.75 2.75056Z" fill="var(--fill-0, white)" stroke="var(--stroke-0, white)" stroke-width="1.5" stroke-linecap="round" stroke-linejoin="round"/>
</svg>
